<svg xmlns="http://www.w3.org/2000/svg" viewBox="0 0 1200 630" width="1200" height="630">
  <defs>
    <linearGradient id="bg" x1="0%" y1="0%" x2="100%" y2="100%">
      <stop offset="0%" stop-color="#050810"/>
      <stop offset="100%" stop-color="#0a1422"/>
    </linearGradient>
    <filter id="glow">
      <feGaussianBlur stdDeviation="12" result="blur"/>
      <feMerge><feMergeNode in="blur"/><feMergeNode in="SourceGraphic"/></feMerge>
    </filter>
  </defs>
  <rect width="1200" height="630" fill="url(#bg)"/>
  <line x1="0" y1="0" x2="0" y2="630" stroke="#4d9fff" stroke-opacity="0.035" stroke-width="1"/>
  <line x1="80" y1="0" x2="80" y2="630" stroke="#4d9fff" stroke-opacity="0.035" stroke-width="1"/>
  <line x1="160" y1="0" x2="160" y2="630" stroke="#4d9fff" stroke-opacity="0.035" stroke-width="1"/>
  <line x1="240" y1="0" x2="240" y2="630" stroke="#4d9fff" stroke-opacity="0.035" stroke-width="1"/>
  <line x1="320" y1="0" x2="320" y2="630" stroke="#4d9fff" stroke-opacity="0.035" stroke-width="1"/>
  <line x1="400" y1="0" x2="400" y2="630" stroke="#4d9fff" stroke-opacity="0.035" stroke-width="1"/>
  <line x1="480" y1="0" x2="480" y2="630" stroke="#4d9fff" stroke-opacity="0.035" stroke-width="1"/>
  <line x1="560" y1="0" x2="560" y2="630" stroke="#4d9fff" stroke-opacity="0.035" stroke-width="1"/>
  <line x1="640" y1="0" x2="640" y2="630" stroke="#4d9fff" stroke-opacity="0.035" stroke-width="1"/>
  <line x1="720" y1="0" x2="720" y2="630" stroke="#4d9fff" stroke-opacity="0.035" stroke-width="1"/>
  <line x1="800" y1="0" x2="800" y2="630" stroke="#4d9fff" stroke-opacity="0.035" stroke-width="1"/>
  <line x1="880" y1="0" x2="880" y2="630" stroke="#4d9fff" stroke-opacity="0.035" stroke-width="1"/>
  <line x1="960" y1="0" x2="960" y2="630" stroke="#4d9fff" stroke-opacity="0.035" stroke-width="1"/>
  <line x1="1040" y1="0" x2="1040" y2="630" stroke="#4d9fff" stroke-opacity="0.035" stroke-width="1"/>
  <line x1="1120" y1="0" x2="1120" y2="630" stroke="#4d9fff" stroke-opacity="0.035" stroke-width="1"/>
  <line x1="1200" y1="0" x2="1200" y2="630" stroke="#4d9fff" stroke-opacity="0.035" stroke-width="1"/>
  <line x1="0" y1="0" x2="1200" y2="0" stroke="#4d9fff" stroke-opacity="0.035" stroke-width="1"/>
  <line x1="0" y1="80" x2="1200" y2="80" stroke="#4d9fff" stroke-opacity="0.035" stroke-width="1"/>
  <line x1="0" y1="160" x2="1200" y2="160" stroke="#4d9fff" stroke-opacity="0.035" stroke-width="1"/>
  <line x1="0" y1="240" x2="1200" y2="240" stroke="#4d9fff" stroke-opacity="0.035" stroke-width="1"/>
  <line x1="0" y1="320" x2="1200" y2="320" stroke="#4d9fff" stroke-opacity="0.035" stroke-width="1"/>
  <line x1="0" y1="400" x2="1200" y2="400" stroke="#4d9fff" stroke-opacity="0.035" stroke-width="1"/>
  <line x1="0" y1="480" x2="1200" y2="480" stroke="#4d9fff" stroke-opacity="0.035" stroke-width="1"/>
  <line x1="0" y1="560" x2="1200" y2="560" stroke="#4d9fff" stroke-opacity="0.035" stroke-width="1"/>
  <polygon points="960.0,375.0 799.8,282.5 799.8,97.5 960.0,5.0 1120.2,97.5 1120.2,282.5" fill="none" stroke="#a78bfa" stroke-opacity="0.07" stroke-width="1.5"/><circle cx="860" cy="450" r="100" fill="none" stroke="#a78bfa" stroke-opacity="0.08" stroke-width="1" stroke-dasharray="6 3"/><circle cx="960" cy="190" r="225" fill="#a78bfa" fill-opacity="0.04"/><line x1="710" y1="65" x2="1150" y2="555" stroke="#a78bfa" stroke-opacity="0.04" stroke-width="1"/>
  <rect x="0" y="0" width="5" height="630" fill="#a78bfa" fill-opacity="0.9"/>
    <rect x="60" y="46" width="141" height="30" rx="6" fill="#a78bfa" fill-opacity="0.12" stroke="#a78bfa" stroke-opacity="0.3" stroke-width="1"/>
  <text x="130" y="66" text-anchor="middle" font-family="'Space Mono',monospace" font-size="11" font-weight="700" fill="#a78bfa" letter-spacing="1.5">CODE SECURITY</text>
    <circle cx="145" cy="340" r="72" fill="#a78bfa" fill-opacity="0.1"/>
  <circle cx="145" cy="340" r="72" fill="none" stroke="#a78bfa" stroke-opacity="0.25" stroke-width="1.5"/>
  <circle cx="145" cy="340" r="90" fill="none" stroke="#a78bfa" stroke-opacity="0.1" stroke-width="1" stroke-dasharray="6 3"/>
  <text x="145" y="362" text-anchor="middle" font-size="68" dominant-baseline="auto">🗝</text>
    <text x="260" y="270" font-family="'Space Grotesk','DM Sans',sans-serif" font-size="52" font-weight="700" fill="#dce4ee" letter-spacing="-0.5">API Key Leak Response</text>
  <text x="260" y="322" font-family="'Apple SD Gothic Neo','Noto Sans KR',sans-serif" font-size="22" fill="#a78bfa" fill-opacity="0.8">API 키 유출 대응 가이드</text>
  <text x="260" y="358" font-family="'Space Mono',monospace" font-size="15" fill="#5a7090" letter-spacing="0.3">Detect · revoke · rotate · prevent — step by step</text>

    <rect x="0" y="596" width="1200" height="34" fill="#a78bfa" fill-opacity="0.055"/>
  <text x="60" y="618" font-family="'Space Mono',monospace" font-size="11" fill="#a78bfa" fill-opacity="0.6" letter-spacing="1.2">digitalcybershield.com</text>
  <text x="1140" y="618" text-anchor="end" font-family="'Space Mono',monospace" font-size="11" fill="#344860" letter-spacing="1">SECURITY BLOG</text>
</svg>